<svg width="205" height="212" viewBox="0 0 205 212" fill="none" xmlns="http://www.w3.org/2000/svg">
<g filter="url(#filter0_d_139_69)">
<path d="M94.6819 0.0244141C98.8019 -0.261142 103.099 1.98304 104.607 6.75977C104.903 7.69886 105.055 8.6813 105.055 9.66602V49.8193C105.055 54.5736 107.309 59.0473 111.13 61.876L118.151 67.0723C118.642 67.436 119.297 67.4935 119.844 67.2207C120.396 66.9455 120.745 66.3812 120.745 65.7646V62.3096C120.746 59.5864 122.953 57.3791 125.676 57.3789C128.399 57.3789 130.607 59.5863 130.608 62.3096V71.7354C130.607 71.9577 130.427 72.1387 130.204 72.1387C129.801 72.139 129.649 72.666 129.99 72.8818L187.631 109.361C188.451 109.88 189.104 110.624 189.513 111.503C191.421 115.605 187.4 119.959 183.159 118.382L120.972 95.2529C119.636 94.7561 118.222 94.502 116.797 94.502C110.275 94.502 104.951 99.7203 104.822 106.241L104.158 139.676L102.941 157.291C102.583 162.468 104.926 167.463 109.136 170.496L124.679 181.695C125.868 182.552 126.573 183.93 126.573 185.396C126.572 188.46 123.61 190.652 120.679 189.756L101.019 183.745C99.7614 183.361 98.4225 184.024 97.967 185.258C97.4325 186.705 95.8863 187.181 94.6829 186.69V186.73C93.4857 187.219 91.946 186.744 91.4172 185.303C90.9662 184.073 89.6311 183.411 88.3792 183.797L68.9045 189.793C65.9726 190.695 63.0036 188.502 63.0032 185.435C63.0032 183.974 63.7031 182.601 64.885 181.743L80.3254 170.54C84.5089 167.505 86.8346 162.529 86.4807 157.372L85.2688 139.712L84.6077 106.176C84.4801 99.7048 79.1981 94.5254 72.7258 94.5254C71.3027 94.5255 69.8906 94.7811 68.5579 95.2803L6.84888 118.392C2.6149 119.977 -1.41423 115.635 0.481689 111.531C0.88799 110.652 1.53901 109.907 2.35571 109.387L59.6135 72.8975C59.9526 72.6814 59.7996 72.1565 59.3977 72.1562C59.176 72.156 58.9957 71.9756 58.9954 71.7539V62.29C58.9955 59.585 61.1888 57.3919 63.8938 57.3916C66.599 57.3916 68.7921 59.5849 68.7922 62.29V65.791C68.7924 66.4015 69.1374 66.9603 69.6829 67.2344C70.2288 67.5085 70.8834 67.4508 71.3733 67.0859L78.343 61.8906C82.1407 59.0597 84.378 54.601 84.3782 49.8643V9.64551C84.3782 8.67365 84.5271 7.70377 84.8176 6.77637C86.3085 2.01931 90.5837 -0.216378 94.6819 0.0673828V0.0244141Z" fill="#75A0C5"/>
</g>
<defs>
<filter id="filter0_d_139_69" x="0" y="0" width="205.001" height="211.998" filterUnits="userSpaceOnUse" color-interpolation-filters="sRGB">
<feFlood flood-opacity="0" result="BackgroundImageFix"/>
<feColorMatrix in="SourceAlpha" type="matrix" values="0 0 0 0 0 0 0 0 0 0 0 0 0 0 0 0 0 0 127 0" result="hardAlpha"/>
<feOffset dx="11" dy="18"/>
<feGaussianBlur stdDeviation="2"/>
<feComposite in2="hardAlpha" operator="out"/>
<feColorMatrix type="matrix" values="0 0 0 0 0 0 0 0 0 0 0 0 0 0 0 0 0 0 0.4 0"/>
<feBlend mode="normal" in2="BackgroundImageFix" result="effect1_dropShadow_139_69"/>
<feBlend mode="normal" in="SourceGraphic" in2="effect1_dropShadow_139_69" result="shape"/>
</filter>
</defs>
</svg>
