<svg width="267" height="265" viewBox="0 0 267 265" fill="none" xmlns="http://www.w3.org/2000/svg">
<g filter="url(#filter0_d_29_9)">
<path d="M186.309 116.216H240.158C241.424 116.216 242.685 116.409 243.893 116.787C255.648 120.462 255.615 137.159 243.814 140.681C242.656 141.027 241.453 141.203 240.245 141.203H183.764C180.618 141.203 177.685 142.794 175.97 145.431L170.901 153.225C169.061 156.054 171.091 159.797 174.467 159.797C176.816 159.797 178.72 161.702 178.72 164.051V167.33C178.72 171.726 174.971 175.188 170.589 174.839L158.256 173.856C157.491 173.795 156.837 174.4 156.837 175.167C156.837 175.377 156.786 175.584 156.69 175.77L140.926 206.355C138.482 211.097 141.407 216.839 146.679 217.65L147.905 217.838C148.591 217.944 149.231 218.245 149.749 218.705C152.226 220.905 150.67 225 147.358 225H137.236C135.146 225 133.152 225.878 131.741 227.421L110.774 250.34C110.01 251.175 109.071 251.831 108.024 252.262C102.214 254.65 96.1461 249.439 97.63 243.334L119.422 153.68C120.967 147.326 116.154 141.203 109.614 141.203L72.7576 140.041L47.9672 138.747C42.6357 138.468 37.5581 141.045 34.6345 145.512L20.9961 166.351C19.8756 168.063 17.9674 169.095 15.9213 169.095C12.0087 169.095 9.11985 165.445 10.0184 161.637L16.2344 135.294C16.6128 133.69 15.7376 132.056 14.193 131.481L14.0618 131.433C11.2687 130.394 11.2687 126.444 14.0618 125.405C15.6548 124.813 16.5118 123.083 16.0179 121.457L8.25743 95.9051C7.11159 92.1323 9.93476 88.3243 13.8777 88.3243C15.7727 88.3243 17.5512 89.2385 18.6541 90.7794L34.4783 112.888C37.5098 117.123 42.5213 119.482 47.7171 119.121L72.7576 117.378L109.614 116.216C116.163 116.216 120.99 110.097 119.466 103.728L98.287 15.2338C96.8159 9.08681 103.102 3.96377 108.826 6.64514C110.094 7.23934 111.172 8.17486 111.939 9.34696L129.514 36.212C132.285 40.4475 137.005 43 142.067 43H147.31C148.36 43 149.364 43.4326 150.085 44.1959C152.55 46.8068 150.373 51.0681 146.812 50.5996L146.477 50.5556C143.222 50.1273 140.904 53.6377 142.577 56.4631L158.549 83.4469C158.874 83.9962 159.716 83.7656 159.716 83.1274C159.716 82.7809 159.997 82.5 160.343 82.5H172.031C175.725 82.5 178.72 85.4949 178.72 89.1892C178.72 92.8835 175.725 95.8784 172.031 95.8784H167.936C167.134 95.8784 166.401 96.3329 166.045 97.0514C165.695 97.7585 165.768 98.6021 166.236 99.2379L174.224 110.102C177.051 113.946 181.538 116.216 186.309 116.216Z" fill="#FF0062"/>
</g>
<path d="M266.955 127.5L262.955 133L257.955 135L250.955 138.5L243.955 140.5L243.955 117L250.955 118L257.955 120.5L262.955 123.5L266.955 127.5Z" fill="#FF0062"/>
<defs>
<filter id="filter0_d_29_9" x="0" y="5.91529" width="252.687" height="258.939" filterUnits="userSpaceOnUse" color-interpolation-filters="sRGB">
<feFlood flood-opacity="0" result="BackgroundImageFix"/>
<feColorMatrix in="SourceAlpha" type="matrix" values="0 0 0 0 0 0 0 0 0 0 0 0 0 0 0 0 0 0 127 0" result="hardAlpha"/>
<feOffset dx="-8" dy="12"/>
<feComposite in2="hardAlpha" operator="out"/>
<feColorMatrix type="matrix" values="0 0 0 0 0 0 0 0 0 0 0 0 0 0 0 0 0 0 0.25 0"/>
<feBlend mode="normal" in2="BackgroundImageFix" result="effect1_dropShadow_29_9"/>
<feBlend mode="normal" in="SourceGraphic" in2="effect1_dropShadow_29_9" result="shape"/>
</filter>
</defs>
</svg>
