<svg width="1554" height="1769" viewBox="0 0 1554 1769" fill="none" xmlns="http://www.w3.org/2000/svg">
<g filter="url(#filter0_d_207_37)">
<path d="M787.917 20.5001L806.417 71.5001L824.417 143C824.417 143 835.279 223.662 840.917 275.5C881.625 649.761 836.917 1239.5 836.917 1239.5L815.917 1429.5L759.917 1704.5L703.917 1429.5L680.917 1239.5C680.917 1239.5 643.826 650.134 680.917 275.5C684.807 236.21 691.917 175 691.917 175L714.417 67.0001L727.917 28.0001L748.417 6.16264e-05L767.917 6.24788e-05L787.917 20.5001Z" fill="#C59A75"/>
<path d="M6.16661 1102.59C-7.70816 1119.54 6.16661 1197.59 6.16661 1197.59C6.16661 1197.59 262.928 1001.89 452.667 927.585C539.428 893.606 680.917 858.085 680.917 858.085L680.917 506C680.917 506 20.0414 1085.63 6.16661 1102.59Z" fill="#C59A75"/>
<path d="M1513.29 1103.21C1527.17 1120.17 1513.29 1198.21 1513.29 1198.21C1513.29 1198.21 1256.53 1002.52 1066.79 928.211C980.031 894.232 838.543 858.711 838.543 858.711L838.543 506.626C838.543 506.626 1499.42 1086.25 1513.29 1103.21Z" fill="#C59A75"/>
<path d="M282.416 771L289.916 772.5L293.916 789L294.416 794L294.916 803L294.916 831.5L291.416 851.5L285.916 851.5L282.416 903L245.416 903L238.416 851.5L232.916 851.5L230.416 831.5L230.416 789L235.416 772.5L236.916 771L282.416 771Z" fill="#C59A75"/>
<path d="M1023.92 573C1020.97 573.502 1019.29 572.374 1016.42 574.5C1013.54 576.625 1012.42 591 1012.42 591L1011.92 596L1011.42 605C1011.42 605 1010.29 622.427 1011.42 633.5C1012.22 641.388 1013.04 653.5 1014.92 653.5C1016.79 653.5 1020.42 653.5 1020.42 653.5L1023.92 705L1060.92 705L1067.92 653.5C1067.92 653.5 1071.04 653.5 1073.42 653.5C1075.79 653.5 1075.92 633.5 1075.92 633.5C1075.92 633.5 1079.37 607.233 1075.92 591C1074.52 584.414 1070.92 574.5 1070.92 574.5C1070.92 574.5 1070.29 573.874 1069.42 573C1068.54 572.125 1041.43 570.009 1023.92 573Z" fill="#C59A75"/>
<path d="M497.077 572.171C500.022 572.674 501.703 571.546 504.577 573.671C507.452 575.796 508.577 590.171 508.577 590.171L509.077 595.171L509.577 604.171C509.577 604.171 510.702 621.598 509.577 632.671C508.776 640.56 507.952 652.671 506.077 652.671C504.203 652.671 500.577 652.671 500.577 652.671L497.077 704.171L460.077 704.171L453.077 652.671C453.077 652.671 449.952 652.671 447.577 652.671C445.203 652.671 445.077 632.671 445.077 632.671C445.077 632.671 441.623 606.405 445.077 590.171C446.479 583.586 450.077 573.671 450.077 573.671C450.077 573.671 450.703 573.046 451.577 572.171C452.452 571.296 479.562 569.181 497.077 572.171Z" fill="#C59A75"/>
<path d="M1239.92 771L1232.42 772.5L1228.42 789L1227.92 794L1227.42 803L1227.42 831.5L1230.92 851.5L1236.42 851.5L1239.92 903L1276.92 903L1283.92 851.5L1289.42 851.5L1291.92 831.5L1291.92 789L1286.92 772.5L1285.42 771L1239.92 771Z" fill="#C59A75"/>
<path d="M1031.92 1628L1031.92 1689.5L777.417 1619.5L784.417 1523L815.417 1434L1031.92 1628Z" fill="#C59A75"/>
<path d="M487.417 1628L487.417 1689.5L741.917 1619.5L734.917 1523L703.917 1434L487.417 1628Z" fill="#C59A75"/>
</g>
<defs>
<filter id="filter0_d_207_37" x="7.45061e-05" y="6.64177e-05" width="1553.46" height="1768.5" filterUnits="userSpaceOnUse" color-interpolation-filters="sRGB">
<feFlood flood-opacity="0" result="BackgroundImageFix"/>
<feColorMatrix in="SourceAlpha" type="matrix" values="0 0 0 0 0 0 0 0 0 0 0 0 0 0 0 0 0 0 127 0" result="hardAlpha"/>
<feOffset dx="30" dy="60"/>
<feGaussianBlur stdDeviation="2"/>
<feComposite in2="hardAlpha" operator="out"/>
<feColorMatrix type="matrix" values="0 0 0 0 0.171154 0 0 0 0 0.171154 0 0 0 0 0.171154 0 0 0 0.5 0"/>
<feBlend mode="normal" in2="BackgroundImageFix" result="effect1_dropShadow_207_37"/>
<feBlend mode="normal" in="SourceGraphic" in2="effect1_dropShadow_207_37" result="shape"/>
</filter>
</defs>
</svg>
