<svg width="205" height="212" viewBox="0 0 205 212" fill="none" xmlns="http://www.w3.org/2000/svg">
<g filter="url(#filter0_d_183_17)">
<path d="M94.6822 0.0241498C98.8021 -0.261251 103.1 1.98293 104.607 6.7595C104.903 7.69867 105.054 8.68094 105.054 9.66575V49.82C105.054 54.5744 107.309 59.048 111.13 61.8767L118.15 67.073C118.642 67.437 119.297 67.4936 119.844 67.2204C120.396 66.9452 120.744 66.3819 120.745 65.7654V62.3103C120.745 59.5868 122.953 57.3787 125.676 57.3786C128.4 57.3787 130.608 59.5868 130.608 62.3103V71.7361C130.608 71.9583 130.427 72.1384 130.205 72.1384C129.801 72.1384 129.648 72.6667 129.989 72.8825L187.63 109.362C188.45 109.881 189.104 110.624 189.513 111.504C191.421 115.605 187.4 119.959 183.16 118.383L120.972 95.2536C119.636 94.7568 118.222 94.5017 116.796 94.5017C110.274 94.5018 104.951 99.721 104.822 106.242L104.158 139.676L102.94 157.292C102.582 162.468 104.926 167.462 109.135 170.496L124.678 181.695C125.868 182.552 126.573 183.929 126.573 185.395C126.573 188.46 123.61 190.652 120.679 189.757L101.019 183.746C99.7617 183.361 98.4228 184.025 97.9673 185.259C97.4328 186.705 95.8866 187.181 94.6832 186.69V186.73C93.4859 187.219 91.9464 186.745 91.4175 185.302C90.9665 184.073 89.6321 183.412 88.3804 183.797L68.9058 189.793C65.9733 190.696 63.0035 188.503 63.0035 185.434C63.0035 183.974 63.7033 182.602 64.8853 181.744L80.3257 170.54C84.5093 167.504 86.836 162.529 86.482 157.372L85.2691 139.712L84.608 106.176C84.4804 99.7046 79.1983 94.5251 72.7261 94.5251C71.3029 94.5251 69.891 94.7809 68.5582 95.28L6.84918 118.391C2.61476 119.977 -1.41478 115.636 0.481989 111.531C0.888378 110.652 1.53909 109.907 2.35601 109.386L59.6138 72.8972C59.9528 72.6811 59.7999 72.1562 59.398 72.156C59.1759 72.156 58.9957 71.9757 58.9957 71.7536V62.2908C58.9957 59.5855 61.1888 57.3923 63.8941 57.3923C66.5994 57.3923 68.7925 59.5855 68.7925 62.2908V65.7908C68.7925 66.4015 69.1374 66.96 69.6832 67.2341C70.2293 67.5084 70.8836 67.4509 71.3736 67.0857L78.3433 61.8904C82.1411 59.0594 84.3785 54.6008 84.3785 49.864V9.64524C84.3785 8.67341 84.5274 7.70445 84.8179 6.77708C86.3088 2.01978 90.5838 -0.216819 94.6822 0.0671186V0.0241498Z" fill="#C59A75"/>
</g>
<defs>
<filter id="filter0_d_183_17" x="0" y="0" width="205.001" height="211.998" filterUnits="userSpaceOnUse" color-interpolation-filters="sRGB">
<feFlood flood-opacity="0" result="BackgroundImageFix"/>
<feColorMatrix in="SourceAlpha" type="matrix" values="0 0 0 0 0 0 0 0 0 0 0 0 0 0 0 0 0 0 127 0" result="hardAlpha"/>
<feOffset dx="11" dy="18"/>
<feGaussianBlur stdDeviation="2"/>
<feComposite in2="hardAlpha" operator="out"/>
<feColorMatrix type="matrix" values="0 0 0 0 0 0 0 0 0 0 0 0 0 0 0 0 0 0 0.4 0"/>
<feBlend mode="normal" in2="BackgroundImageFix" result="effect1_dropShadow_183_17"/>
<feBlend mode="normal" in="SourceGraphic" in2="effect1_dropShadow_183_17" result="shape"/>
</filter>
</defs>
</svg>
