<svg width="215" height="222" viewBox="0 0 215 222" fill="none" xmlns="http://www.w3.org/2000/svg">
<path d="M157.549 100H203.371C204.451 100 205.527 100.163 206.559 100.483C216.708 103.628 216.68 118.045 206.491 121.059C205.502 121.351 204.476 121.5 203.445 121.5H154.319C151.623 121.5 149.109 122.857 147.63 125.111L143.241 131.799C141.635 134.247 143.391 137.5 146.319 137.5C148.352 137.5 150 139.148 150 141.181V143.264C150 146.625 147.134 149.274 143.783 149.009L133.363 148.187C132.089 148.086 131 149.093 131 150.371C131 150.782 130.884 151.185 130.666 151.533L90.9671 214.955C90.3383 215.959 89.4095 216.741 88.3121 217.188C83.7745 219.036 79.198 214.623 80.8808 210.021L107.817 136.368C108.269 135.132 108.5 133.827 108.5 132.511C108.5 126.395 103.606 121.403 97.4914 121.282L58 120.5L37.5654 119.443C32.2583 119.169 27.2021 121.723 24.2736 126.157L13.0612 143.136C12.0865 144.612 10.4358 145.5 8.66694 145.5C5.26546 145.5 2.75635 142.323 3.5442 139.014L8.92226 116.426C9.25189 115.042 8.49486 113.63 7.15947 113.138L7.04499 113.096C4.63189 112.206 4.63189 108.794 7.04498 107.904C8.42239 107.397 9.16351 105.902 8.73341 104.498L2.01984 82.591C1.01566 79.3143 3.46641 76 6.8936 76C8.53042 76 10.0677 76.786 11.026 78.113L24.1211 96.2446C27.1553 100.446 32.1432 102.783 37.3133 102.427L58 101L95.4106 100.259C102.681 100.115 108.5 94.1801 108.5 86.9081C108.5 85.3155 108.215 83.7358 107.659 82.2436L81.8118 12.9077C80.0456 8.16988 84.9083 3.6717 89.4944 5.80099C90.4774 6.25738 91.3086 6.98653 91.8891 7.9017L132.67 72.1912C132.911 72.5718 133.5 72.4008 133.5 71.9501C133.5 71.7015 133.702 71.5 133.95 71.5H144.5C147.538 71.5 150 73.9624 150 77C150 80.0376 147.538 82.5 144.5 82.5H140.621C139.934 82.5 139.306 82.8883 138.999 83.5029C138.693 84.1145 138.757 84.8461 139.164 85.3953L145.502 93.9377C148.332 97.7514 152.8 100 157.549 100Z" fill="#D9D9D9"/>
</svg>
