<svg width="263" height="271" viewBox="0 0 263 271" fill="none" xmlns="http://www.w3.org/2000/svg">
<g filter="url(#filter0_d_201_22)">
<path d="M118.331 92.284L118.331 43.4863C118.331 42.1282 118.554 40.7749 118.988 39.4879C122.832 28.0804 139.032 28.1126 142.719 39.572C143.116 40.8068 143.318 42.096 143.318 43.3931L143.318 94.9603C143.318 98.2178 145.023 101.238 147.812 102.921L155.772 107.724C158.47 109.352 161.913 107.409 161.913 104.258C161.913 102.022 163.725 100.209 165.961 100.209L169.421 100.209C173.821 100.209 177.278 103.976 176.902 108.36L175.982 119.075C175.916 119.848 176.525 120.512 177.301 120.512C177.499 120.512 177.694 120.557 177.873 120.642L209.164 135.606C213.643 137.748 218.926 134.996 219.738 130.098L219.933 128.927C220.052 128.209 220.384 127.544 220.888 127.018C223.142 124.664 227.115 126.259 227.115 129.518L227.115 138.415C227.115 140.525 228.043 142.529 229.652 143.895L252.482 163.272C253.299 163.965 253.949 164.834 254.383 165.814C256.752 171.162 252.017 176.925 246.312 175.639L154.94 155.033C148.983 153.689 143.318 158.219 143.318 164.325L142.156 198.521L140.918 220.52C140.607 226.053 143.372 231.307 148.109 234.184L168.505 246.569C170.184 247.588 171.21 249.411 171.21 251.375C171.21 254.965 167.891 257.636 164.384 256.868L137.308 250.941C135.746 250.599 134.166 251.436 133.571 252.92L133.525 253.036C132.444 255.734 128.625 255.734 127.544 253.036C126.931 251.508 125.264 250.687 123.679 251.134L97.3888 258.542C93.901 259.525 90.4396 256.904 90.4396 253.28C90.4396 251.449 91.3565 249.739 92.882 248.726L114.501 234.369C119.02 231.368 121.567 226.161 121.161 220.752L119.494 198.521L118.331 164.325C118.331 158.211 112.67 153.669 106.701 154.994L16.5225 175.018C10.7643 176.297 6.10863 170.309 8.76723 165.043C9.35676 163.876 10.262 162.897 11.3801 162.218L38.5259 145.741C42.6171 143.258 45.1152 138.82 45.1152 134.034L45.1152 129.547C45.1152 128.453 45.5896 127.409 46.4129 126.688C49.0584 124.37 53.1736 126.579 52.6797 130.061C52.241 133.155 55.5213 135.422 58.2598 133.918L85.498 118.959C86.0383 118.662 85.8276 117.841 85.2111 117.841C84.882 117.841 84.6152 117.574 84.6152 117.245L84.6152 106.898C84.6152 103.204 87.6101 100.209 91.3044 100.209C94.9988 100.209 97.9936 103.204 97.9936 106.898L97.9936 110.071C97.9936 110.899 98.4758 111.651 99.2282 111.997C99.9044 112.308 100.694 112.241 101.309 111.822L111.785 104.675C115.881 101.881 118.331 97.2425 118.331 92.284Z" fill="#FF0062"/>
</g>
<path d="M129.615 17.5L135.115 21.5L137.115 26.5L140.615 33.5L142.615 40.5L119.115 40.5L120.115 33.5L122.615 26.5L125.615 21.5L129.615 17.5Z" fill="#FF0062"/>
<defs>
<filter id="filter0_d_201_22" x="0" y="30.9546" width="255.008" height="239.795" filterUnits="userSpaceOnUse" color-interpolation-filters="sRGB">
<feFlood flood-opacity="0" result="BackgroundImageFix"/>
<feColorMatrix in="SourceAlpha" type="matrix" values="0 0 0 0 0 0 0 0 0 0 0 0 0 0 0 0 0 0 127 0" result="hardAlpha"/>
<feOffset dx="-8" dy="12"/>
<feComposite in2="hardAlpha" operator="out"/>
<feColorMatrix type="matrix" values="0 0 0 0 0 0 0 0 0 0 0 0 0 0 0 0 0 0 0.25 0"/>
<feBlend mode="normal" in2="BackgroundImageFix" result="effect1_dropShadow_201_22"/>
<feBlend mode="normal" in="SourceGraphic" in2="effect1_dropShadow_201_22" result="shape"/>
</filter>
</defs>
</svg>
