<svg width="90" height="90" viewBox="0 0 90 90" fill="none" xmlns="http://www.w3.org/2000/svg">
<path d="M74.5859 25.9492L82.3584 61.4082L61.0674 58.5049L60.9893 58.4941L60.9102 58.5078L44.4951 61.4922L26.582 58.5068L26.5049 58.4941L26.4277 58.5049L6.65332 61.3984L14.9082 25.9502L29.4756 24.0078L44.3867 27.4873L44.498 27.5127L44.6104 27.4873L60.0195 24.0068L74.5859 25.9492Z" stroke="white"/>
<line x1="11.8824" y1="57.7794" x2="26.8824" y2="49.7794" stroke="white" stroke-opacity="0.69" stroke-width="0.5"/>
<line x1="12.951" y1="44.7549" x2="27.951" y2="41.7549" stroke="white" stroke-opacity="0.69" stroke-width="0.5"/>
<path d="M28.021 49.7509L40 51" stroke="white" stroke-opacity="0.69" stroke-width="0.5"/>
<path d="M28 41.6212L44.2857 33.6584" stroke="white" stroke-opacity="0.69" stroke-width="0.5"/>
<path d="M56.8174 46.9941L44.1769 34" stroke="white" stroke-opacity="0.69" stroke-width="0.5"/>
<path d="M40 51L44.1499 53.8" stroke="white" stroke-opacity="0.69" stroke-width="0.5"/>
<line x1="44.7856" y1="53.8714" x2="53.7856" y2="38.8714" stroke="white" stroke-opacity="0.69" stroke-width="0.5"/>
<line x1="60.8232" y1="46.1768" x2="53.8232" y2="39.1768" stroke="white" stroke-opacity="0.69" stroke-width="0.5"/>
<line x1="74.0562" y1="43.2436" x2="61.0562" y2="46.2436" stroke="white" stroke-opacity="0.69" stroke-width="0.5"/>
<line x1="25.1672" y1="33.8142" x2="35.1672" y2="42.8142" stroke="white" stroke-opacity="0.69" stroke-width="0.5"/>
<line x1="38.2372" y1="34.0791" x2="35.2372" y2="43.0791" stroke="white" stroke-opacity="0.69" stroke-width="0.5"/>
<line x1="38.2298" y1="33.9015" x2="44.2298" y2="47.9015" stroke="white" stroke-opacity="0.69" stroke-width="0.5"/>
<path d="M44.1065 47.7737L57.5 54" stroke="white" stroke-opacity="0.69" stroke-width="0.5"/>
<path d="M57.5 54L71.9998 53.75" stroke="white" stroke-opacity="0.69" stroke-width="0.5"/>
<path d="M44.0923 61.1333L44.6777 27.0013" stroke="white"/>
<path d="M26.502 58.9573L30 24" stroke="white"/>
<line x1="59.4992" y1="23.9715" x2="61.4992" y2="58.9715" stroke="white"/>
</svg>
